HIERARCHY
ROOT Hips
{
	OFFSET 0.00000 0.00000 0.00000
	CHANNELS 6 Xposition Yposition Zposition Zrotation Yrotation Xrotation 
	JOINT LHipJoint
	{
		OFFSET 0 0 0
		CHANNELS 3 Zrotation Yrotation Xrotation
		JOINT LeftHip
		{
			OFFSET 1.34019 -1.87553 0.90315
			CHANNELS 3 Zrotation Yrotation Xrotation
			JOINT LeftKnee
			{
				OFFSET 2.55316 -7.01474 0.00000
				CHANNELS 3 Zrotation Yrotation Xrotation
				JOINT LeftAnkle
				{
					OFFSET 2.64657 -7.27139 0.00000
					CHANNELS 3 Zrotation Yrotation Xrotation
					JOINT LeftToe
					{
						OFFSET 0.24207 -0.66507 2.14489
						CHANNELS 3 Zrotation Yrotation Xrotation
						End Site
						{
							OFFSET 0.00000 -0.00000 1.12451
						}
					}
				}
			}
		}
	}
	JOINT RHipJoint
	{
		OFFSET 0 0 0
		CHANNELS 3 Zrotation Yrotation Xrotation
		JOINT RightHip
		{
			OFFSET -1.28320 -1.87553 0.90315
			CHANNELS 3 Zrotation Yrotation Xrotation
			JOINT RightKnee
			{
				OFFSET -2.60484 -7.15674 0.00000
				CHANNELS 3 Zrotation Yrotation Xrotation
				JOINT RightAnkle
				{
					OFFSET -2.60296 -7.15159 0.00000
					CHANNELS 3 Zrotation Yrotation Xrotation
					JOINT RightToe
					{
						OFFSET -0.31082 -0.85398 2.28998
						CHANNELS 3 Zrotation Yrotation Xrotation
						End Site
						{
							OFFSET -0.00000 -0.00000 1.21611
						}
					}
				}
			}
		}
	}
	JOINT lowerback
	{
		OFFSET 0 0 0
		CHANNELS 3 Zrotation Yrotation Xrotation
		JOINT Chest
		{
			OFFSET -0.00160 2.05581 -0.15156
			CHANNELS 3 Zrotation Yrotation Xrotation
			JOINT Chest2
			{
				OFFSET 0.04594 2.06326 -0.01617
				CHANNELS 3 Zrotation Yrotation Xrotation
				JOINT lowerneck
				{
					OFFSET 0 0 0
					CHANNELS 3 Zrotation Yrotation Xrotation
					JOINT Neck
					{
						OFFSET 0.03753 1.73883 0.26751
						CHANNELS 3 Zrotation Yrotation Xrotation
						JOINT Head
						{
							OFFSET -0.09795 1.76129 -0.31794
							CHANNELS 3 Zrotation Yrotation Xrotation
							End Site
							{
								OFFSET -0.03611 1.79987 -0.13846
							}
						}
					}
				}
				JOINT LeftCollar
				{
					OFFSET 0 0 0
					CHANNELS 3 Zrotation Yrotation Xrotation
					JOINT LeftShoulder
					{
						OFFSET 3.30667 1.29205 -0.22445
CHANNELS 3 Zrotation Xrotation Yrotation
						JOINT LeftElbow
						{
OFFSET 0 -4.927850 -0.000000
CHANNELS 3 Zrotation Xrotation Yrotation
							JOINT LeftWrist
							{
OFFSET 0 -3.440520 0.000000
CHANNELS 3 Zrotation Xrotation Yrotation
								JOINT lhand
								{
									OFFSET 0 0 0
CHANNELS 3 Zrotation Xrotation Yrotation
									JOINT LFingers
									{
OFFSET 0 -0.654330 0.000000
CHANNELS 3 Zrotation Xrotation Yrotation
										End Site
										{
OFFSET 0 -0.527530 0.000000
										}
									}
								}
								JOINT LThumb
								{
OFFSET 0 0.000000 0.000000
CHANNELS 3 Zrotation Xrotation Yrotation
									End Site
									{
OFFSET 0 -0.535590 0.535590
									}
								}
							}
						}
					}
				}
				JOINT RightCollar
				{
					OFFSET 0 0 0
					CHANNELS 3 Zrotation Yrotation Xrotation
					JOINT RightShoulder
					{
						OFFSET -3.20032 1.49783 -0.27688
CHANNELS 3 Zrotation Xrotation Yrotation
						JOINT RightElbow
						{
OFFSET 0 -5.091810 -0.000000
CHANNELS 3 Zrotation Xrotation Yrotation
							JOINT RightWrist
							{
OFFSET 0 -3.498650 -0.000000
CHANNELS 3 Zrotation Xrotation Yrotation
								JOINT rhand
								{
									OFFSET 0 0 0
CHANNELS 3 Zrotation Xrotation Yrotation
									JOINT RFingers
									{
OFFSET 0 -0.666410 0.000000
CHANNELS 3 Zrotation Xrotation Yrotation
										End Site
										{
OFFSET 0 -0.537280 0.000000
										}
									}
								}
								JOINT RThumb
								{
OFFSET 0 0.000000 0.000000
CHANNELS 3 Zrotation Xrotation Yrotation
									End Site
									{
OFFSET 0 -0.545480 0.545480
									}
								}
							}
						}
					}
				}
			}
		}
	}
}
MOTION
Frames: 8
Frame Time: 0.008333333333333333
1.285550 17.118255 -19.352338 2.222340 10.337569 7.508777 0.000000 0.000000 0.000000 -24.790795 -0.630322 -14.552182 5.374970 13.792575 42.415749 0.814424 12.353545 -25.621115 0.761245 -5.571570 -15.546394 0.000000 0.000000 0.000000 8.905557 10.397208 -50.200375 -9.163869 -16.911606 56.654389 1.145721 -18.698209 -4.431689 -0.050628 1.445812 -3.976508 -5.598022 -2.521580 18.452080 2.643162 -4.234359 0.755112 7.162266 -1.730154 -8.909241 9.002528 3.937188 -21.951717 -8.128746 4.264496 16.127867 -3.679110 1.671932 9.039175 0.000000 0.000000 0.000000 11.278533 -18.448344 -34.692652 38.223392 -46.974899 17.130805 23.603423 -8.640170 13.701313 0.000000 0.000000 0.000000 -7.125000 0.000000 0.000000 -2.596537 15.091657 -1.832930 0.000000 0.000000 0.000000 -9.501986 14.745307 30.851633 -28.079786 -39.186433 -10.175257 -17.997112 -5.301718 3.441821 0.000000 0.000000 0.000000 7.125000 0.000000 0.000000 7.038967 33.537303 1.990970
1.264013 17.126478 -19.155689 2.584108 10.613189 7.873315 0.000000 0.000000 0.000000 -24.988515 -0.319087 -13.412506 5.020040 13.405420 40.907443 0.817061 12.359128 -25.647359 0.796774 -5.697256 -15.908610 0.000000 0.000000 0.000000 8.705031 9.826184 -50.228406 -9.417583 -17.068806 57.522984 1.064733 -17.986045 -4.906935 -0.083018 1.854281 -5.103341 -5.833443 -2.630171 18.044606 2.565744 -4.420046 0.564073 7.231731 -1.810585 -8.853658 8.975756 3.920871 -22.025043 -8.075208 4.236617 16.201274 -3.660938 1.661624 9.072608 0.000000 0.000000 0.000000 12.100199 -18.106284 -34.662114 40.112071 -48.132777 18.523711 23.715040 -8.710740 13.498306 0.000000 0.000000 0.000000 -7.125000 0.000000 0.000000 -2.508071 15.297862 -1.759239 0.000000 0.000000 0.000000 -9.949700 15.291283 31.548589 -29.247190 -40.237387 -10.920706 -17.935609 -5.318213 3.663004 0.000000 0.000000 0.000000 7.125000 0.000000 0.000000 7.111619 33.765644 1.972262
1.243526 17.146035 -18.952009 2.910173 10.877172 8.241463 0.000000 0.000000 0.000000 -25.180639 -0.104437 -12.186698 4.650444 12.978300 39.288365 0.768030 12.545041 -25.436523 0.827291 -5.802908 -16.213578 0.000000 0.000000 0.000000 8.602788 9.182346 -50.169216 -9.652309 -17.209608 58.319866 0.982175 -17.250074 -5.444828 -0.128774 2.310975 -6.366135 -6.011759 -2.756875 17.629675 2.496731 -4.615973 0.352524 7.278907 -1.896725 -8.816962 8.972609 3.910887 -22.051019 -8.068502 4.221127 16.217768 -3.660549 1.654327 9.081148 0.000000 0.000000 0.000000 13.005842 -17.625053 -34.484100 41.979468 -49.198291 19.925462 23.841988 -8.689174 13.327400 0.000000 0.000000 0.000000 -7.125000 0.000000 0.000000 -2.410868 15.468103 -1.682072 0.000000 0.000000 0.000000 -10.457100 15.917943 32.221251 -30.519046 -41.332788 -11.751421 -17.844584 -5.335491 3.772480 0.000000 0.000000 0.000000 7.125000 0.000000 0.000000 7.197054 33.876408 1.976815
1.224030 17.180389 -18.741929 3.154992 11.134011 8.595319 0.000000 0.000000 0.000000 -25.297845 0.015459 -10.916292 4.287533 12.531639 37.642420 0.670550 12.822979 -24.917670 0.862258 -5.921057 -16.555725 0.000000 0.000000 0.000000 8.640066 8.495482 -49.999791 -9.829273 -17.312637 58.916006 0.903625 -16.549479 -5.896925 -0.180081 2.729888 -7.527822 -6.089698 -2.896363 17.219441 2.453549 -4.805723 0.130463 7.294951 -1.982248 -8.799633 8.968340 3.897383 -22.065542 -8.084413 4.205314 16.202353 -3.667438 1.644623 9.077132 0.000000 0.000000 0.000000 13.948708 -17.024069 -34.164893 43.724753 -50.124404 21.256575 23.999862 -8.639761 13.310719 0.000000 0.000000 0.000000 -7.125000 0.000000 0.000000 -2.301549 15.468487 -1.605582 0.000000 0.000000 0.000000 -11.014710 16.619107 32.820225 -31.871037 -42.440290 -12.655113 -17.779445 -5.361592 3.715719 0.000000 0.000000 0.000000 7.125000 0.000000 0.000000 7.244172 33.814958 2.000818
1.204973 17.229363 -18.526524 3.286403 11.373337 8.925000 0.000000 0.000000 0.000000 -25.286262 0.059761 -9.651057 3.945825 12.085890 36.039293 0.535738 13.115950 -24.079931 0.913558 -6.089767 -17.045274 0.000000 0.000000 0.000000 8.841654 7.813804 -49.723152 -9.930502 -17.370583 59.255847 0.834454 -15.925011 -6.201054 -0.227175 3.065709 -8.461998 -6.049297 -3.035913 16.818921 2.445835 -4.969258 -0.094088 7.276580 -2.058605 -8.800416 8.914966 3.863402 -22.088220 -8.065006 4.169105 16.194453 -3.657002 1.625948 9.073266 0.000000 0.000000 0.000000 14.894357 -16.318807 -33.738810 45.321997 -50.921748 22.489450 24.184515 -8.612986 13.390808 0.000000 0.000000 0.000000 -7.125000 0.000000 0.000000 -2.179671 15.360770 -1.525454 0.000000 0.000000 0.000000 -11.594032 17.369950 33.318969 -33.262331 -43.526188 -13.603973 -17.763344 -5.386446 3.601247 0.000000 0.000000 0.000000 7.125000 0.000000 0.000000 7.245275 33.695197 2.022312
1.186200 17.293262 -18.305779 3.296165 11.561840 9.223407 0.000000 0.000000 0.000000 -25.131793 0.062088 -8.423058 3.634119 11.655533 34.525871 0.374381 13.369437 -22.913840 0.986992 -6.322740 -17.724024 0.000000 0.000000 0.000000 9.219348 7.169759 -49.340032 -9.951293 -17.382403 59.325449 0.777575 -15.399171 -6.343163 -0.266223 3.318149 -9.165881 -5.894626 -3.157307 16.423191 2.472701 -5.083805 -0.309491 7.219639 -2.115728 -8.807417 8.813440 3.810962 -22.153748 -7.998175 4.110849 16.220646 -3.625545 1.598249 9.084330 0.000000 0.000000 0.000000 15.827003 -15.519816 -33.230494 46.752039 -51.596519 23.604501 24.372890 -8.692035 13.519462 0.000000 0.000000 0.000000 -7.125000 0.000000 0.000000 -2.058597 15.199621 -1.447746 0.000000 0.000000 0.000000 -12.172220 18.146505 33.698801 -34.671446 -44.573036 -14.583313 -17.797258 -5.456498 3.549981 0.000000 0.000000 0.000000 7.125000 0.000000 0.000000 7.212255 33.643079 2.022123
1.167775 17.371513 -18.079433 3.190197 11.655625 9.481646 0.000000 0.000000 0.000000 -24.842572 0.078435 -7.266004 3.357470 11.252402 33.135836 0.197455 13.548615 -21.413928 1.082580 -6.613151 -18.574134 0.000000 0.000000 0.000000 9.774370 6.586451 -48.852160 -9.899875 -17.353184 59.153266 0.734606 -14.988549 -6.328327 -0.297379 3.506231 -9.691486 -5.646799 -3.242844 16.020518 2.528255 -5.130388 -0.501390 7.124270 -2.145378 -8.800096 8.669717 3.744849 -22.258127 -7.888267 4.034353 16.237750 -3.574362 1.563291 9.095406 0.000000 0.000000 0.000000 16.741189 -14.636372 -32.660877 48.020088 -52.165009 24.601629 24.544262 -8.946891 13.593537 0.000000 0.000000 0.000000 -7.125000 0.000000 0.000000 -1.946059 15.099185 -1.372727 0.000000 0.000000 0.000000 -12.727909 18.907402 33.955195 -36.038113 -45.539207 -15.549701 -17.874768 -5.556004 3.603060 0.000000 0.000000 0.000000 7.125000 0.000000 0.000000 7.154763 33.701020 1.995695
1.149294 17.463821 -17.847143 2.987368 11.609293 9.683883 0.000000 0.000000 0.000000 -24.442221 0.175175 -6.217457 3.122667 10.890115 31.911151 0.014570 13.640884 -19.537198 1.199817 -6.948585 -19.563680 0.000000 0.000000 0.000000 10.499688 6.069289 -48.249211 -9.785601 -17.287405 58.769142 0.707894 -14.718961 -6.149907 -0.323965 3.657909 -10.116156 -5.330537 -3.270742 15.613408 2.595642 -5.087579 -0.656911 6.981538 -2.137151 -8.768135 8.570426 3.692258 -22.371353 -7.812063 3.966824 16.213818 -3.540547 1.531504 9.096653 0.000000 0.000000 0.000000 17.638410 -13.657661 -32.063733 49.088943 -52.620556 25.448606 24.733121 -9.469636 13.636100 0.000000 0.000000 0.000000 -7.125000 0.000000 0.000000 -1.819732 15.030692 -1.286161 0.000000 0.000000 0.000000 -13.237571 19.657981 34.087920 -37.339468 -46.409974 -16.486193 -18.004416 -5.705374 3.706622 0.000000 0.000000 0.000000 7.125000 0.000000 0.000000 7.060108 33.813741 1.949547
